<svg xmlns="http://www.w3.org/2000/svg" xmlns:xlink="http://www.w3.org/1999/xlink" viewBox="0 0 1600 900"><defs><style>.cls-1{fill:url(#radial-gradient);}.cls-11,.cls-12,.cls-13,.cls-14,.cls-15,.cls-16,.cls-2,.cls-6,.cls-7,.cls-8,.cls-9{stroke:#000;stroke-miterlimit:10;}.cls-2{stroke-width:4px;fill:url(#radial-gradient-2);}.cls-3{fill:#70530b;}.cls-4{fill:#267f44;}.cls-5{fill:#043814;}.cls-6{fill:#434443;}.cls-11,.cls-12,.cls-13,.cls-14,.cls-15,.cls-16,.cls-6,.cls-7,.cls-8,.cls-9{stroke-width:5px;}.cls-7{fill:#ba712f;}.cls-8{fill:#4c4a48;}.cls-9{fill:#4c3b2d;}.cls-10{font-size:21px;fill:#0f0701;font-family:MyriadPro-Regular, Myriad Pro;}.cls-11{fill:#56362a;}.cls-12{fill:#70321e;}.cls-13{fill:#a98478;}.cls-14{fill:#38190f;}.cls-15{fill:#8d5b4b;}.cls-17{fill:none;}.cls-18{fill:#347a0f;}.cls-19{fill:#073f07;}.cls-20{fill:#246302;}.cls-21{fill:#85af6f;}.cls-22{fill:#648e4c;}</style><radialGradient id="radial-gradient" cx="1311" cy="470.5" r="327.48" gradientTransform="translate(-1925.9 -230.9) scale(2.11 1.77)" gradientUnits="userSpaceOnUse"><stop offset="0" stop-color="#009245"/><stop offset="1" stop-color="#042a00"/></radialGradient><radialGradient id="radial-gradient-2" cx="796.5" cy="171" r="576.04" gradientUnits="userSpaceOnUse"><stop offset="0.1" stop-color="#ffd81e"/><stop offset="1" stop-color="#baffff"/></radialGradient></defs><title>baggrund</title><g id="baggrunde_farver_" data-name="baggrunde (farver)"><rect class="cls-1" x="-73" y="301" width="1815" height="599" rx="149" ry="149"/><rect class="cls-2" width="1593" height="342"/></g><g id="Træerne_helt_ude_i_baggrunden" data-name="Træerne helt ude i baggrunden"><rect class="cls-3" x="118.8" y="243.4" width="72" height="351.46" transform="translate(-1.5 0.6) rotate(-0.2)"/><path class="cls-4" d="M327.3,109.5l-4.2-3.2c-15.2-12-20.9-29.7-14.9-46.6h0c14.6-41.1-38.4-74.2-86.8-54.2l-11.1,4.6c-17.9,7.4-38.9,7.8-56.3,1.1h0C102.6-8.5,40.1,25.7,44.4,71.3h0c1.4,15.5-6.7,31-21.8,41.7l-9.4,6.6c-40.8,28.9-21.6,80.5,31.4,84.5h0a67.8,67.8,0,0,1,32.6,10.7,4.1,4.1,0,0,0-2-1.3,4.1,4.1,0,0,1,2,1.3l2.6,1.8h0a46.7,46.7,0,0,1,13.5,15.6l2.3,4.3c19.2,36.3,83.9,38.1,110.7,3l10.7-14c11.7-15.3,31.4-26.1,53.5-29.3l20.1-2.9C341.1,186,362.6,137.1,327.3,109.5Z"/><rect class="cls-3" x="551.8" y="243.4" width="72" height="351.46" transform="translate(-1.5 2.1) rotate(-0.2)"/><path class="cls-4" d="M760.3,109.5l-4.2-3.2c-15.2-12-20.9-29.7-14.9-46.6h0c14.6-41.1-38.4-74.2-86.8-54.2l-11.1,4.6c-17.9,7.4-38.9,7.8-56.3,1.1h0C535.6-8.5,473.1,25.7,477.4,71.3h0c1.4,15.5-6.7,31-21.8,41.7l-9.4,6.6c-40.8,28.9-21.6,80.5,31.4,84.5h0a67.8,67.8,0,0,1,32.6,10.7,4.1,4.1,0,0,0-2-1.3,4.1,4.1,0,0,1,2,1.3l2.6,1.8h0a46.7,46.7,0,0,1,13.5,15.6l2.3,4.3c19.2,36.3,83.9,38.1,110.7,3l10.7-14c11.7-15.3,31.4-26.1,53.5-29.3l20.1-2.9C774.1,186,795.6,137.1,760.3,109.5Z"/><rect class="cls-3" x="331.2" y="205.1" width="72" height="315.9" transform="translate(-5.6 5.7) rotate(-0.9)"/><path class="cls-5" d="M536.5,82.7l-4.2-2.9C516.9,69.3,511,53.4,516.9,38.1h0C531,1,477.7-28.1,429.5-9.5l-11,4.3c-17.9,6.8-38.8,7.5-56.4,1.6h0C310.6-20.7,248.4,10.9,253.2,51.8h0c1.6,13.9-6.3,27.9-21.4,37.7l-9.3,6.1c-40.5,26.4-20.8,72.6,32.3,75.6h0a72.2,72.2,0,0,1,32.7,9.2,4,4,0,0,0-2-1.2,4,4,0,0,1,2,1.2l2.6,1.6h0a45,45,0,0,1,13.7,13.8l2.3,3.9c19.6,32.4,84.3,33.2,110.7,1.3l10.5-12.7c11.6-13.9,31.2-23.9,53.3-27l20-2.8C551.1,151.3,572,107,536.5,82.7Z"/></g><g id="skolen"><ellipse class="cls-6" cx="1335" cy="350" rx="47.4" ry="7.6" transform="translate(-14.9 62.7) rotate(-2.7)"/><ellipse class="cls-6" cx="1411" cy="365.9" rx="47.5" ry="7.6"/><ellipse class="cls-6" cx="1335" cy="386" rx="47.5" ry="7.6"/><ellipse class="cls-6" cx="1430" cy="401.3" rx="47.5" ry="7.6"/><ellipse class="cls-6" cx="1344" cy="401.3" rx="47.5" ry="7.6"/><ellipse class="cls-6" cx="1411" cy="381.2" rx="47.5" ry="7.6"/><ellipse class="cls-6" cx="1399" cy="424.1" rx="47.5" ry="7.6"/><ellipse class="cls-6" cx="1335" cy="443.6" rx="47.5" ry="7.6"/><ellipse class="cls-6" cx="1399" cy="467.1" rx="47.5" ry="7.6"/><ellipse class="cls-6" cx="1304" cy="467.1" rx="47.5" ry="7.6"/><ellipse class="cls-6" cx="1352" cy="490.7" rx="47.5" ry="7.6"/><ellipse class="cls-6" cx="1297" cy="514.3" rx="47.5" ry="7.6"/><ellipse class="cls-6" cx="1305" cy="544.8" rx="47.5" ry="7.6"/><ellipse class="cls-6" cx="1399" cy="533" rx="47.5" ry="7.6"/><ellipse class="cls-6" cx="1410.5" cy="568" rx="57" ry="18.4"/><ellipse class="cls-6" cx="1266.5" cy="583.9" rx="57" ry="18.4"/><ellipse class="cls-6" cx="1353.5" cy="613.7" rx="57" ry="18.4"/><ellipse class="cls-6" cx="1211.5" cy="632.4" rx="57" ry="18.4"/><ellipse class="cls-6" cx="1136.5" cy="672.6" rx="57" ry="18.4"/><ellipse class="cls-6" cx="1287.5" cy="676.6" rx="57" ry="18.4"/><ellipse class="cls-6" cx="1223.4" cy="549.4" rx="28.5" ry="9.1" transform="translate(-66.2 181.2) rotate(-8.2)"/><ellipse class="cls-6" cx="1042.5" cy="690.6" rx="57" ry="18.4"/><rect class="cls-7" x="1176.5" y="159.4" width="423" height="181.84"/><rect class="cls-8" x="1344.5" y="241.5" width="76" height="100"/><rect class="cls-8" x="1189.5" y="219.5" width="33" height="53"/><rect class="cls-9" x="1236.5" y="219.5" width="33" height="53"/><rect class="cls-8" x="1443.5" y="219.5" width="33" height="53"/><rect class="cls-8" x="1490.5" y="219.5" width="33" height="53"/><rect class="cls-8" x="1541.5" y="219.5" width="33" height="53"/><text class="cls-10" transform="translate(1310 214.8)">SCHOOL</text><rect class="cls-7" x="1176.5" y="-14.2" width="423.5" height="181.84"/><rect class="cls-8" x="1189.5" y="44.5" width="33" height="53"/><rect class="cls-9" x="1236.5" y="44.5" width="33" height="53"/><rect class="cls-8" x="1443.5" y="44.5" width="33" height="53"/><rect class="cls-8" x="1490.5" y="44.5" width="33" height="53"/><rect class="cls-8" x="1541.5" y="44.5" width="33" height="53"/><rect class="cls-8" x="1284.5" y="44.5" width="33" height="53"/><rect class="cls-8" x="1330.5" y="46.5" width="33" height="53"/><rect class="cls-8" x="1376.5" y="46.5" width="33" height="53"/></g><g id="murstene"><rect class="cls-11" x="15.9" y="636.7" width="67.5" height="45.14" rx="12" ry="12"/><rect class="cls-12" x="83.4" y="636.7" width="136.4" height="45.14" rx="12" ry="12"/><rect class="cls-12" x="219.8" y="636.7" width="136.4" height="45.14" rx="12" ry="12"/><rect class="cls-13" x="438.6" y="636.7" width="136.4" height="45.14" rx="12" ry="12"/><rect class="cls-12" x="575" y="636.7" width="136.4" height="45.14" rx="12" ry="12"/><rect class="cls-11" x="356.2" y="636.7" width="82.5" height="45.14" rx="12" ry="12"/><rect class="cls-13" x="711.4" y="636.7" width="67.5" height="45.14" rx="12" ry="12"/><rect class="cls-11" x="778.9" y="636.7" width="82.5" height="45.14" rx="12" ry="12"/><rect class="cls-13" x="861.4" y="636.7" width="136.4" height="45.14" rx="12" ry="12"/><rect class="cls-12" x="793.2" y="591.5" width="136.4" height="45.14" rx="12" ry="12"/><rect class="cls-11" x="928.3" y="591.5" width="82.5" height="45.14" rx="12" ry="12"/><rect class="cls-12" x="-52.3" y="591.5" width="136.4" height="45.14" rx="12" ry="12"/><rect class="cls-11" x="84.1" y="591.5" width="67.5" height="45.14" rx="12" ry="12"/><rect class="cls-13" x="151.6" y="591.5" width="136.4" height="45.14" rx="12" ry="12"/><rect class="cls-13" x="656.8" y="591.5" width="136.4" height="45.14" rx="12" ry="12"/><rect class="cls-12" x="288" y="591.5" width="136.4" height="45.14" rx="12" ry="12"/><rect class="cls-11" x="424.4" y="591.5" width="82.5" height="45.14" rx="12" ry="12"/><rect class="cls-11" x="506.8" y="591.5" width="82.5" height="45.14" rx="12" ry="12"/><rect class="cls-11" x="579.6" y="591.5" width="82.5" height="45.14" rx="12" ry="12"/><rect class="cls-13" x="-52.3" y="546.4" width="136.4" height="45.14" rx="12" ry="12"/><rect class="cls-14" x="83.4" y="546.4" width="136.4" height="45.14" rx="12" ry="12"/><rect class="cls-13" x="866.6" y="546.4" width="136.4" height="45.14" rx="12" ry="12"/><rect class="cls-11" x="219.8" y="546.4" width="82.5" height="45.14" rx="12" ry="12"/><rect class="cls-12" x="730.2" y="546.4" width="136.4" height="45.14" rx="12" ry="12"/><rect class="cls-11" x="650.4" y="546.4" width="82.5" height="45.14" rx="12" ry="12"/><rect class="cls-13" x="302.3" y="546.4" width="136.4" height="45.14" rx="12" ry="12"/><rect class="cls-12" x="438.6" y="546.4" width="136.4" height="45.14" rx="12" ry="12"/><rect class="cls-15" x="575" y="546.4" width="75.3" height="45.14" rx="12" ry="12"/><rect class="cls-15" x="-64" y="501.2" width="75.3" height="45.14" rx="12" ry="12"/><rect class="cls-12" x="11.3" y="501.2" width="136.4" height="45.14" rx="12" ry="12"/><rect class="cls-14" x="147.7" y="501.2" width="136.4" height="45.14" rx="12" ry="12"/><rect class="cls-14" x="861.4" y="501.2" width="136.4" height="45.14" rx="12" ry="12"/><rect class="cls-13" x="725" y="501.2" width="136.4" height="45.14" rx="12" ry="12"/><rect class="cls-12" x="284.1" y="501.2" width="136.4" height="45.14" rx="12" ry="12"/><rect class="cls-16" x="417.2" y="501.2" width="82.5" height="45.14" rx="12" ry="12"/><rect class="cls-13" x="499.7" y="501.2" width="82.5" height="45.14" rx="12" ry="12"/><rect class="cls-11" x="582.2" y="501.2" width="82.5" height="45.14" rx="12" ry="12"/><rect class="cls-11" x="643.2" y="501.2" width="82.5" height="45.14" rx="12" ry="12"/><rect class="cls-11" x="17.2" y="464.5" width="67.5" height="36.77" rx="12" ry="12"/><rect class="cls-12" x="84.7" y="464.5" width="136.4" height="36.77" rx="12" ry="12"/><rect class="cls-12" x="221.1" y="464.5" width="136.4" height="36.77" rx="12" ry="12"/><rect class="cls-13" x="439.9" y="464.5" width="136.4" height="36.77" rx="12" ry="12"/><rect class="cls-12" x="576.3" y="464.5" width="136.4" height="36.77" rx="12" ry="12"/><rect class="cls-11" x="357.5" y="464.5" width="82.5" height="36.77" rx="12" ry="12"/><rect class="cls-13" x="712.7" y="464.5" width="67.5" height="36.77" rx="12" ry="12"/><rect class="cls-11" x="780.2" y="464.5" width="82.5" height="36.77" rx="12" ry="12"/><rect class="cls-13" x="862.7" y="464.5" width="136.4" height="36.77" rx="12" ry="12"/><rect class="cls-12" x="794.5" y="427.7" width="136.4" height="36.77" rx="12" ry="12"/><rect class="cls-11" x="929.6" y="427.7" width="82.5" height="36.77" rx="12" ry="12"/><rect class="cls-12" x="-51" y="427.7" width="136.4" height="36.77" rx="12" ry="12"/><rect class="cls-11" x="85.4" y="427.7" width="67.5" height="36.77" rx="12" ry="12"/><rect class="cls-13" x="152.9" y="427.7" width="136.4" height="36.77" rx="12" ry="12"/><rect class="cls-13" x="658.1" y="427.7" width="136.4" height="36.77" rx="12" ry="12"/><rect class="cls-12" x="289.3" y="427.7" width="136.4" height="36.77" rx="12" ry="12"/><rect class="cls-11" x="425.7" y="427.7" width="82.5" height="36.77" rx="12" ry="12"/><rect class="cls-11" x="508.1" y="427.7" width="82.5" height="36.77" rx="12" ry="12"/><rect class="cls-11" x="580.9" y="427.7" width="82.5" height="36.77" rx="12" ry="12"/><rect class="cls-13" x="-51" y="390.9" width="136.4" height="36.77" rx="12" ry="12"/><rect class="cls-14" x="84.7" y="390.9" width="136.4" height="36.77" rx="12" ry="12"/><rect class="cls-13" x="867.9" y="390.9" width="136.4" height="36.77" rx="12" ry="12"/><rect class="cls-11" x="221.1" y="390.9" width="82.5" height="36.77" rx="12" ry="12"/><rect class="cls-12" x="731.5" y="390.9" width="136.4" height="36.77" rx="12" ry="12"/><rect class="cls-11" x="651.7" y="390.9" width="82.5" height="36.77" rx="12" ry="12"/><rect class="cls-13" x="303.6" y="390.9" width="136.4" height="36.77" rx="12" ry="12"/><rect class="cls-12" x="439.9" y="390.9" width="136.4" height="36.77" rx="12" ry="12"/><rect class="cls-15" x="576.3" y="390.9" width="75.3" height="36.77" rx="12" ry="12"/><rect class="cls-15" x="-62.7" y="354.2" width="75.3" height="36.77" rx="12" ry="12"/><rect class="cls-12" x="12.6" y="354.2" width="136.4" height="36.77" rx="12" ry="12"/><rect class="cls-14" x="149" y="354.2" width="136.4" height="36.77" rx="12" ry="12"/><rect class="cls-14" x="862.7" y="354.2" width="136.4" height="36.77" rx="12" ry="12"/><rect class="cls-13" x="726.3" y="354.2" width="136.4" height="36.77" rx="12" ry="12"/><rect class="cls-12" x="285.4" y="354.2" width="136.4" height="36.77" rx="12" ry="12"/><rect class="cls-16" x="418.5" y="354.2" width="82.5" height="36.77" rx="12" ry="12"/><rect class="cls-13" x="501" y="354.2" width="82.5" height="36.77" rx="12" ry="12"/><rect class="cls-11" x="583.5" y="354.2" width="82.5" height="36.77" rx="12" ry="12"/><rect class="cls-11" x="644.5" y="354.2" width="82.5" height="36.77" rx="12" ry="12"/></g><g id="blade"><line class="cls-17" x1="1165" y1="533" x2="1177" y2="586"/><path class="cls-18" d="M1314.1,504.7c7.1-5.3,25.8,7.5,41.8,28.6"/><path class="cls-18" d="M1347.2,533.4c-2.5-8.4,16.1-21.4,41.6-28.8"/><path class="cls-18" d="M1250.1,420.7c7.1-5.3,25.8,7.5,41.8,28.6"/><path class="cls-18" d="M1283.2,449.4c-2.5-8.4,16.1-21.4,41.6-28.8"/><path class="cls-18" d="M1400.1,494.7c7.1-5.3,25.8,7.5,41.8,28.6"/><path class="cls-18" d="M1433.2,523.4c-2.5-8.4,16.1-21.4,41.6-28.8"/><path class="cls-18" d="M1392.1,479.7c7.1-5.3,25.8,7.5,41.8,28.6"/><path class="cls-18" d="M1425.2,508.4c-2.5-8.4,16.1-21.4,41.6-28.8"/><path class="cls-18" d="M1376.1,492.7c7.1-5.3,25.8,7.5,41.8,28.6"/><path class="cls-18" d="M1409.2,521.4c-2.5-8.4,16.1-21.4,41.6-28.8"/><path class="cls-18" d="M1392.1,465.7c7.1-5.3,25.8,7.5,41.8,28.6"/><path class="cls-18" d="M1425.2,494.4c-2.5-8.4,16.1-21.4,41.6-28.8"/><path class="cls-18" d="M1351.1,424.7c7.1-5.3,25.8,7.5,41.8,28.6"/><path class="cls-18" d="M1384.2,453.4c-2.5-8.4,16.1-21.4,41.6-28.8"/><path class="cls-18" d="M1172.1,581.7c7.1-5.3,25.8,7.5,41.8,28.6"/><path class="cls-18" d="M1205.2,610.4c-2.5-8.4,16.1-21.4,41.6-28.8"/><path class="cls-18" d="M1099.1,615.7c7.1-5.3,25.8,7.5,41.8,28.6"/><path class="cls-18" d="M1132.2,644.4c-2.5-8.4,16.1-21.4,41.6-28.8"/><path class="cls-18" d="M1268.1,312.7c7.1-5.3,25.8,7.5,41.8,28.6"/><path class="cls-18" d="M1301.2,341.4c-2.5-8.4,16.1-21.4,41.6-28.8"/><path class="cls-17" d="M399-59c0,159.2,110.5,288,247,288"/><path class="cls-17" d="M737.1,276c0,27.2,13.6,49.2,30.4,49.2"/><path class="cls-19" d="M1503.6,702.8c22.9,117,58.5,212.4,79.7,213.3"/><path class="cls-19" d="M1591.6,928.5c-67.9-98.8-134.6-166.5-149-151.3"/><path class="cls-19" d="M1573.7,704.5c-14.5,105.4-8.8,200.7,12.8,213"/><path class="cls-19" d="M1465.4,697.6c43.2,114.5,93.7,202.3,112.9,196.3"/><path class="cls-20" d="M1441.3,729.9c22.9,117,58.5,212.5,79.7,213.4"/><path class="cls-20" d="M1529.4,955.7c-68-98.9-134.7-166.5-149-151.3"/><path class="cls-20" d="M1511.5,731.6c-14.6,105.5-8.9,200.7,12.7,213.1"/><path class="cls-20" d="M1403.1,724.8c43.2,114.5,93.7,202.3,112.9,196.3"/><path class="cls-21" d="M1495.8,745.3c22.9,117,58.5,212.4,79.6,213.3"/><path class="cls-21" d="M1583.8,971c-68-98.9-134.6-166.5-149-151.3"/><path class="cls-21" d="M1565.9,747c-14.5,105.4-8.8,200.7,12.8,213"/><path class="cls-21" d="M1457.5,740.1c43.2,114.5,93.7,202.3,112.9,196.3"/><path class="cls-19" d="M1536.8,654.1c22.8,117,58.4,212.4,79.6,213.3"/><path class="cls-19" d="M1624.8,879.8c-68-98.8-134.6-166.5-149-151.3"/><path class="cls-19" d="M1606.9,655.8c-14.6,105.4-8.8,200.7,12.7,213.1"/><path class="cls-19" d="M1498.5,649c43.2,114.4,93.7,202.2,112.9,196.3"/><path class="cls-19" d="M1005.1,665.7a1.5,1.5,0,0,0,0-3,1.5,1.5,0,0,0,0,3Z"/><path class="cls-19" d="M1381.6,732.8c22.9,117,58.5,212.4,79.7,213.3"/><path class="cls-19" d="M1469.6,958.5c-67.9-98.8-134.6-166.5-149-151.3"/><path class="cls-19" d="M1451.7,734.5c-14.5,105.4-8.8,200.7,12.8,213"/><path class="cls-19" d="M1343.4,727.6c43.2,114.5,93.7,202.3,112.9,196.3"/><path class="cls-20" d="M1319.3,759.9c22.9,117,58.5,212.5,79.7,213.4"/><path class="cls-20" d="M1407.4,985.7c-68-98.9-134.7-166.5-149-151.3"/><path class="cls-20" d="M1389.5,761.6c-14.6,105.5-8.9,200.7,12.7,213.1"/><path class="cls-20" d="M1281.1,754.8c43.2,114.5,93.7,202.3,112.9,196.3"/><path class="cls-21" d="M1373.8,775.3c22.9,117,58.5,212.4,79.6,213.3"/><path class="cls-21" d="M1461.8,1001c-68-98.9-134.6-166.5-149-151.3"/><path class="cls-21" d="M1443.9,777c-14.5,105.4-8.8,200.7,12.8,213"/><path class="cls-21" d="M1335.5,770.1c43.2,114.5,93.7,202.3,112.9,196.3"/><path class="cls-19" d="M1414.8,684.1c22.8,117,58.4,212.4,79.6,213.3"/><path class="cls-19" d="M1502.8,909.8c-68-98.8-134.6-166.5-149-151.3"/><path class="cls-19" d="M1484.9,685.8c-14.6,105.4-8.8,200.7,12.7,213.1"/><path class="cls-19" d="M1376.5,679c43.2,114.4,93.7,202.2,112.9,196.3"/><path class="cls-19" d="M1551.6,632.8c22.9,117,58.5,212.4,79.7,213.3"/><path class="cls-19" d="M1639.6,858.5c-67.9-98.8-134.6-166.5-149-151.3"/><path class="cls-19" d="M1513.4,627.6c43.2,114.5,93.7,202.3,112.9,196.3"/><path class="cls-20" d="M1489.3,659.9c22.9,117,58.5,212.5,79.7,213.4"/><path class="cls-20" d="M1577.4,885.7c-68-98.9-134.7-166.5-149-151.3"/><path class="cls-20" d="M1559.5,661.6c-14.6,105.5-8.9,200.7,12.7,213.1"/><path class="cls-20" d="M1451.1,654.8c43.2,114.5,93.7,202.3,112.9,196.3"/><path class="cls-21" d="M1543.8,675.3c22.9,117,58.5,212.4,79.6,213.3"/><path class="cls-21" d="M1631.8,901c-68-98.9-134.6-166.5-149-151.3"/><path class="cls-21" d="M1505.5,670.1c43.2,114.5,93.7,202.3,112.9,196.3"/><path class="cls-19" d="M1584.8,584.1c22.8,117,58.4,212.4,79.6,213.3"/><path class="cls-19" d="M1672.8,809.8c-68-98.8-134.6-166.5-149-151.3"/><path class="cls-19" d="M1546.5,579c43.2,114.4,93.7,202.2,112.9,196.3"/><path class="cls-19" d="M1599.6,487.8c22.9,117,58.5,212.4,79.7,213.3"/><path class="cls-19" d="M1687.6,713.5c-67.9-98.8-134.6-166.5-149-151.3"/><path class="cls-19" d="M1561.4,482.6c43.2,114.5,93.7,202.3,112.9,196.3"/><path class="cls-20" d="M1537.3,514.9c22.9,117,58.5,212.5,79.7,213.4"/><path class="cls-20" d="M1625.4,740.7c-68-98.9-134.7-166.5-149-151.3"/><path class="cls-20" d="M1607.5,516.6c-14.6,105.5-8.9,200.7,12.7,213.1"/><path class="cls-20" d="M1499.1,509.8c43.2,114.5,93.7,202.3,112.9,196.3"/><path class="cls-21" d="M1591.8,530.3c22.9,117,58.5,212.4,79.6,213.3"/><path class="cls-21" d="M1679.8,756c-68-98.9-134.6-166.5-149-151.3"/><path class="cls-21" d="M1553.5,525.1c43.2,114.5,93.7,202.3,112.9,196.3"/><path class="cls-19" d="M1720.8,664.8c-68-98.8-134.6-166.5-149-151.3"/><path class="cls-19" d="M1594.5,434c43.2,114.4,93.7,202.2,112.9,196.3"/><path class="cls-19" d="M111.3,771C9.5,833.1-67.5,899.7-61,919.8"/><path class="cls-19" d="M-69.7,932c69-98.1,109.3-184.1,90-192.3"/><path class="cls-19" d="M134.1,837.4c-103.9,23-191.3,61.5-195.3,86"/><path class="cls-19" d="M102.8,733.4C10.5,813.7-54.3,891.5-42,907.5"/><path class="cls-20" d="M64.2,722.1C-37.6,784.2-114.7,850.8-108.1,870.9"/><path class="cls-20" d="M87,788.4c-103.9,23-191.3,61.5-195.4,86"/><path class="cls-20" d="M55.7,684.4C-36.6,764.7-101.4,842.6-89.1,858.5"/><path class="cls-21" d="M68.7,778.5C-33,840.6-110.1,907.1-103.6,927.3"/><path class="cls-21" d="M91.5,844.8c-103.9,23-191.2,61.5-195.3,86"/><path class="cls-21" d="M60.3,740.8C-32,821.1-96.8,899-84.6,914.9"/><path class="cls-19" d="M168.4,785.2C66.7,847.3-10.4,913.9-3.9,934"/><path class="cls-19" d="M-12.6,946.2c69-98.1,109.3-184.1,90.1-192.3"/><path class="cls-19" d="M191.2,851.5C87.3,874.5,0,913-4.1,937.5"/><path class="cls-19" d="M160,747.5C67.7,827.8,2.9,905.7,15.1,921.6"/><path class="cls-19" d="M97.9,681.2C-3.9,743.3-80.9,809.9-74.4,830"/><path class="cls-19" d="M-83.1,842.2c69-98.1,109.3-184.1,90-192.3"/><path class="cls-19" d="M120.7,747.5C16.8,770.6-70.6,809-74.6,833.6"/><path class="cls-19" d="M89.4,643.5C-2.9,723.9-67.6,801.7-55.4,817.6"/><path class="cls-19" d="M193.6,791.7C91.9,853.8,14.8,920.4,21.3,940.5"/><path class="cls-19" d="M12.6,952.7c69-98.1,109.3-184.1,90.1-192.3"/><path class="cls-19" d="M216.4,858C112.5,881.1,25.1,919.5,21.1,944.1"/><path class="cls-19" d="M185.1,754C92.8,834.3,28.1,912.2,40.3,928.1"/><path class="cls-20" d="M146.5,742.8C44.7,804.9-32.3,871.4-25.8,891.6"/><path class="cls-20" d="M-34.5,903.7c69-98.1,109.3-184.1,90-192.3"/><path class="cls-20" d="M169.3,809.1C65.4,832.1-22,870.6-26,895.1"/><path class="cls-20" d="M138,705.1C45.7,785.4-19.1,863.3-6.8,879.2"/><path class="cls-21" d="M151.1,799.1C49.3,861.3-27.8,927.8-21.3,948"/><path class="cls-21" d="M-30,960.1C39.1,862,79.3,776,60.1,767.8"/><path class="cls-21" d="M173.8,865.5c-103.9,23-191.2,61.5-195.3,86"/><path class="cls-21" d="M142.6,761.5C50.3,841.8-14.5,919.6-2.2,935.6"/><path class="cls-19" d="M250.8,805.9C149,868,71.9,934.5,78.4,954.7"/><path class="cls-19" d="M69.7,966.8c69.1-98.1,109.3-184.1,90.1-192.2"/><path class="cls-19" d="M273.5,872.2c-103.9,23-191.2,61.5-195.3,86"/><path class="cls-19" d="M242.3,768.2C150,848.5,85.2,926.4,97.5,942.3"/><path class="cls-19" d="M346.3,786.3C244.5,848.4,167.4,915,173.9,935.1"/><path class="cls-19" d="M165.2,947.3c69.1-98.1,109.4-184.1,90.1-192.3"/><path class="cls-19" d="M369,852.6c-103.8,23.1-191.2,61.5-195.3,86.1"/><path class="cls-19" d="M337.8,748.6C245.5,828.9,180.7,906.8,193,922.7"/><path class="cls-20" d="M299.1,737.4C197.4,799.5,120.3,866,126.8,886.2"/><path class="cls-20" d="M118.1,898.3c69-98.1,109.3-184.1,90.1-192.2"/><path class="cls-20" d="M321.9,803.7c-103.9,23-191.2,61.5-195.3,86"/><path class="cls-20" d="M290.7,699.7C198.4,780,133.6,857.9,145.8,873.8"/><path class="cls-21" d="M303.7,793.8C201.9,855.9,124.9,922.4,131.4,942.6"/><path class="cls-21" d="M122.7,954.7c69-98.1,109.3-184.1,90-192.3"/><path class="cls-21" d="M326.5,860.1c-103.9,23-191.3,61.5-195.3,86"/><path class="cls-21" d="M295.2,756.1c-92.3,80.3-157.1,158.1-144.8,174.1"/><path class="cls-19" d="M403.4,800.5C301.6,862.6,224.6,929.1,231.1,949.3"/><path class="cls-19" d="M222.4,961.4c69-98.1,109.3-184.1,90-192.2"/><path class="cls-19" d="M426.2,866.8c-103.9,23-191.3,61.5-195.3,86"/><path class="cls-19" d="M394.9,762.8c-92.3,80.3-157,158.2-144.8,174.1"/><path class="cls-22" d="M929.1,579.6c9.1,59.3,23.2,107.7,31.6,108.1"/><path class="cls-22" d="M964,694c-26.9-50.1-53.3-84.4-59-76.7"/><path class="cls-22" d="M956.9,580.5c-5.7,53.4-3.5,101.7,5.1,107.9"/><path class="cls-22" d="M914,577c17.1,58,37.1,102.5,44.7,99.5"/><path class="cls-22" d="M931.9,466.2c10.1,118.1,25.9,214.4,35.2,215.3"/><path class="cls-22" d="M970.8,694c-30-99.8-59.5-168.1-65.8-152.7"/><path class="cls-22" d="M962.9,467.9c-6.4,106.4-3.9,202.6,5.6,215"/><path class="cls-22" d="M915,461c19.1,115.5,41.4,204.1,49.9,198.1"/><path class="cls-22" d="M982.7,572.7c-17.3,57.5-25.4,107.2-18.1,111.2"/><path class="cls-22" d="M964.9,691c-2.7-56.8-11.7-99.1-20.2-94.6"/><path class="cls-22" d="M1007.4,585.5c-28.2,45.7-46.9,90.3-41.9,99.6"/><path class="cls-22" d="M970.2,563.9c-9.6,59.7-10.7,108.5-2.5,109"/></g></svg>
