<?xml version="1.0" encoding="utf-8"?>
<!-- Generator: Adobe Illustrator 22.0.1, SVG Export Plug-In . SVG Version: 6.00 Build 0)  -->
<svg version="1.1" xmlns="http://www.w3.org/2000/svg" xmlns:xlink="http://www.w3.org/1999/xlink" x="0px" y="0px"
	 viewBox="0 0 1920 1080" style="enable-background:new 0 0 1920 1080;" xml:space="preserve">
<style type="text/css">
	.st0{display:none;}
	.st1{display:inline;fill:#FFFFFF;stroke:#000000;stroke-miterlimit:10;}
	.st2{display:inline;}
	.st3{fill:#FFFFFF;stroke:#000000;stroke-miterlimit:10;}
	.st4{fill:#F8AAB8;stroke:#000000;stroke-miterlimit:10;}
	.st5{fill:#FBCA91;stroke:#000000;stroke-miterlimit:10;}
	.st6{fill:#F376B0;stroke:#000000;stroke-miterlimit:10;}
	.st7{fill:#5B2E10;stroke:#000000;stroke-miterlimit:10;}
	.st8{fill:#B96F3D;}
	.st9{fill:#CB936E;}
	.st10{fill:#FBCA91;stroke:#000000;stroke-width:2;stroke-miterlimit:10;}
	.st11{fill:#FBCA91;stroke:#000000;stroke-width:4;stroke-miterlimit:10;}
	.st12{fill:#FBCA91;stroke:#000000;stroke-width:10;stroke-miterlimit:10;}
	.st13{stroke:#000000;stroke-miterlimit:10;}
</style>
<g id="hår" class="st0">
</g>
<g id="arme" class="st0">
	<path class="st1" d="M646.5,661.5"/>
	<g class="st2">
		<path class="st3" d="M725.5,609.5c0,0-200,85-145,115c0,0-2,33,145-63V609.5z"/>
	</g>
	<g class="st2">
		<path class="st3" d="M994.9,608c0,0,206.2,68.5,153.9,102.8c0,0,4.7,32.7-149.6-51L994.9,608z"/>
	</g>
</g>
<g id="kroppen" class="st0">
	<path class="st1" d="M725.5,599.5h275c0,0-37,89,115,243c0,0-126,125-432,60C683.5,902.5,732.5,838.5,725.5,599.5z"/>
</g>
<g id="ben" class="st0">
	<g class="st2">
		<path class="st3" d="M823.5,921.5c0,0-7.4,33.6-2.7,63.9c2.8,18.2,10,35.2,25.7,43.1c0,0,24-5,0-107H823.5z"/>
	</g>
	<g class="st2">
		<path class="st3" d="M934,918.1c0,0,0.2,34.4,11.6,62.9c6.8,17.1,17.6,32.1,34.7,36.3c0,0,22.3-10.2-23.8-104.3L934,918.1z"/>
	</g>
</g>
<g id="hænder_og_fædder" class="st0">
	<path class="st1" d="M604.5,669.5c0,0-62,41-32,60s65-12,65-12L604.5,669.5z"/>
	<path class="st1" d="M1126.9,657.7c0,0,63.7,38.3,34.5,58.6c-29.2,20.3-65.4-9.2-65.4-9.2L1126.9,657.7z"/>
	<g class="st2">
		<path class="st3" d="M819.5,985.5c0,0,4,29,27,43c0,0,15-15,11-43l-11,21L819.5,985.5z"/>
	</g>
	<g class="st2">
		<path class="st3" d="M944.9,979.4c0,0,9.2,27.8,34.4,37.3c0,0,12-17.5,3-44.3l-7,22.7L944.9,979.4z"/>
	</g>
</g>
<g id="pathfinder">
	<path class="st4" d="M1623.7,587.1c1.2-7.6,2.8-11.6,2.8-11.6h-275c0.2,5.4,0.3,10.8,0.4,16c-44.1,19.9-177.6,83.8-131.4,109
		c0,0-1.9,30.9,131.5-54.2c-3.4,181.2-42.5,232.2-42.5,232.2c306,65,432-60,432-60c-75-76-104-136.2-114.1-177.6
		c142.8,76,138.3,44.9,138.3,44.9C1810.4,656.5,1666.8,602.3,1623.7,587.1z"/>
</g>
<g id="Pathfinder_hænder_og_fødder">
	<path class="st5" d="M1245.9,647c0,0-53.8,40.7-27.8,59.5c26,18.9,56.4-11.9,56.4-11.9L1245.9,647z"/>
	<path class="st5" d="M1749.4,641.4c0,0,51.8,32.9,28.1,50.1c-23.7,17.3-53.2-8-53.2-8L1749.4,641.4z"/>
	<g>
		<path class="st5" d="M1472.8,897.3c0,0-7.7,33.5-3.2,63.9c2.7,18.2,9.7,35.3,25.4,43.3c0,0,24-4.8,0.8-107L1472.8,897.3z"/>
	</g>
	<g>
		<path class="st6" d="M1467.5,966.5c0,0,4,29,27,43c0,0,15-15,11-43l-11,21L1467.5,966.5z"/>
	</g>
	<g>
		<path class="st5" d="M1560.4,889.6c0,0-5,34,1.9,63.9c4.1,17.9,12.5,34.4,28.8,41.1c0,0,23.6-6.7-7.7-106.7L1560.4,889.6z"/>
	</g>
	<g>
		<path class="st6" d="M1559.6,956c0,0,6.3,28.6,30.3,40.7c0,0,13.8-16.1,7.5-43.7l-9.3,21.8L1559.6,956z"/>
	</g>
</g>
<g id="pathfinder_hoved">
	<g>
		<path class="st7" d="M1395.7,561.4v-149c0-4-1.2-7.7-3.3-10.6c-4.7-6.5-11.4-21.2,3.3-42.3c19.2-27.7,39.1-8,92.3-94.2
			c4.1-6.7,11.6-7.3,16.2-1.3c15.1,19.2,48.5,57.2,87.9,73.5c4.7,2,7.9,7.7,7.9,14.3v0c0,4.5,1.5,8.7,4,11.5
			c7.1,7.7,19.1,26.2-0.4,48.3c-2.4,2.7-3.8,6.5-4,10.6c-0.8,21.7-2.6,90.6,4.6,128.3c5,25.9,14.3,37.1,31.2,8.3
			c1.6-2.7,2.4-6.1,2.4-9.5c-0.8-42.7-6.8-333.4-33.1-318.2c-2.8,1.6-5.9,1.8-8.6,0.3c-26.1-14.9-143-73.1-231.3,20.6
			c-0.4,0.4-0.8,0.9-1.1,1.4c-6.8,9.5-71.2,105.7-50.9,316.4c0.5,5,2.8,9.4,6.2,11.6c14.6,9.4,54.7,30.1,74.8-11.8
			C1395.1,567.1,1395.7,564.3,1395.7,561.4z"/>
		<path class="st8" d="M1460.5,251.5c0,0-19,35-64,75"/>
		<path class="st9" d="M1514.5,251.5c0,0,18.9,24,63.5,51.5"/>
		<path class="st9" d="M1411.5,265.5c0,0-19,35-64,75"/>
		<g>
			<path class="st5" d="M1365.4,577.5c0,0-1.8-9-3.7-24.4c-3.6-30.4-7.2-85.5,3.7-144.6c0,0-41.5-25,0-43
				c11.3-4.9,26.1-15.5,41.7-28.3c41.9-34.3,89.4-84.7,89.4-84.7s29.9,62,119.5,84v33c0,0,35.7,18,0,45c0,0,16.4,117,3.9,163H1365.4
				z"/>
			<path class="st10" d="M1416.5,353.5c0,0,23.1-28.1,40.5,0"/>
			<path class="st5" d="M1516.8,359.5c0,0,23.1-28.1,40.5,0"/>
			<path class="st11" d="M1469.5,436c0,0,23.1-13.5,40.5,0"/>
			<path class="st12" d="M1428.1,486.5c0,0,53,53,118.6,0"/>
			<ellipse class="st13" cx="1448.8" cy="390" rx="14.9" ry="15.5"/>
			<ellipse class="st13" cx="1537.5" cy="390" rx="14.9" ry="15.5"/>
		</g>
	</g>
</g>
<g id="ansigt" class="st0">
	<g class="st2">
		<path class="st3" d="M774.7,591.4v-149c0-4-1.2-7.7-3.3-10.6c-4.7-6.5-11.4-21.2,3.3-42.3c19.2-27.7,39.1-8,92.3-94.2
			c4.1-6.7,11.6-7.3,16.2-1.3c15.1,19.2,48.5,57.2,87.9,73.5c4.7,2,7.9,7.7,7.9,14.3v0c0,4.5,1.5,8.7,4,11.5
			c7.1,7.7,19.1,26.2-0.4,48.3c-2.4,2.7-3.8,6.5-4,10.6c-0.8,21.7-2.6,90.6,4.6,128.3c5,25.9,14.3,37.1,31.2,8.3
			c1.6-2.7,2.4-6.1,2.4-9.5c-0.8-42.7-6.8-333.4-33.1-318.2c-2.8,1.6-5.9,1.8-8.6,0.3c-26.1-14.9-143-73.1-231.3,20.6
			c-0.4,0.4-0.8,0.9-1.1,1.4c-6.8,9.5-71.2,105.7-50.9,316.4c0.5,5,2.8,9.4,6.2,11.6c14.6,9.4,54.7,30.1,74.8-11.8
			C774.1,597.1,774.7,594.3,774.7,591.4z"/>
		<path class="st3" d="M839.5,281.5c0,0-19,35-64,75"/>
		<path class="st3" d="M893.5,281.5c0,0,18.9,24,63.5,51.5"/>
		<path class="st3" d="M790.5,295.5c0,0-19,35-64,75"/>
		<path class="st3" d="M710.5,466.5c0,0-11,17,0,62"/>
		<g>
			<path class="st3" d="M744.4,607.5c0,0-1.8-9-3.7-24.4c-3.6-30.4-7.2-85.5,3.7-144.6c0,0-41.5-25,0-43
				c11.3-4.9,26.1-15.5,41.7-28.3c41.9-34.3,89.4-84.7,89.4-84.7s29.9,62,119.5,84v33c0,0,35.7,18,0,45c0,0,16.4,117,3.9,163H744.4z
				"/>
			<path class="st3" d="M795.5,383.5c0,0,23.1-28.1,40.5,0"/>
			<path class="st3" d="M895.8,389.5c0,0,23.1-28.1,40.5,0"/>
			<path class="st3" d="M848.5,466c0,0,23.1-13.5,40.5,0"/>
			<path class="st3" d="M807.1,516.5c0,0,53,53,118.6,0"/>
			<ellipse class="st3" cx="827.8" cy="420" rx="14.9" ry="15.5"/>
			<ellipse class="st3" cx="916.5" cy="420" rx="14.9" ry="15.5"/>
		</g>
	</g>
</g>
<g id="Layer_1" class="st0">
</g>
</svg>
