<?xml version="1.0" encoding="utf-8"?>
<!-- Generator: Adobe Illustrator 22.0.1, SVG Export Plug-In . SVG Version: 6.00 Build 0)  -->
<svg version="1.1" xmlns="http://www.w3.org/2000/svg" xmlns:xlink="http://www.w3.org/1999/xlink" x="0px" y="0px"
	 viewBox="0 0 1920 1080" style="enable-background:new 0 0 1920 1080;" xml:space="preserve">
<style type="text/css">
	.st0{fill:#FFFFFF;stroke:#000000;stroke-miterlimit:10;}
	.st1{fill:#657899;stroke:#000000;stroke-miterlimit:10;}
	.st2{fill:#FFE0BD;stroke:#000000;stroke-miterlimit:10;}
	.st3{fill:#AA6577;stroke:#000000;stroke-miterlimit:10;}
	.st4{fill:#B4B4B4;stroke:#000000;stroke-miterlimit:10;}
	.st5{display:none;}
	.st6{display:inline;fill:#FFFFFF;stroke:#000000;stroke-miterlimit:10;}
	.st7{display:inline;}
	.st8{stroke:#000000;stroke-miterlimit:10;}
	.st9{fill:#FFFFFF;stroke:#000000;stroke-width:6;stroke-miterlimit:10;}
	.st10{fill:#FFE0BD;stroke:#000000;stroke-width:16;stroke-miterlimit:10;}
	.st11{fill:#FFE0BD;stroke:#000000;stroke-width:6;stroke-miterlimit:10;}
	.st12{fill:#BA1921;stroke:#000000;stroke-miterlimit:10;}
	.st13{fill:#5D0D11;}
</style>
<g id="overkrop">
	<g>
		<path class="st0" d="M1184.5,683.5v-6C1183.5,679.3,1183.4,681.2,1184.5,683.5z"/>
		<path class="st1" d="M1432.5,481.7v-8.2l-248-9v10.3c-44,18.7-180,79.9-134.3,106.2c0,0-2.6,31.1,134.3-52.3v148.9
			c15.2-25.7,248,6,248,6V535.7c133.5,69.9,129.2,40.1,129.2,40.1C1602.7,548.9,1485.6,501.2,1432.5,481.7z"/>
	</g>
	<path class="st2" d="M1073,530.7c0,0-64.7,32.7-34.8,50.3c29.9,17.7,66.7-7.5,66.7-7.5L1073,530.7z"/>
	<path class="st2" d="M1546.9,530.7c0,0,63.5,33,34.2,50.8c-29.3,17.8-65.4-7.7-65.4-7.7L1546.9,530.7z"/>
</g>
<g id="underkrop">
	<path class="st3" d="M1192.1,658.5c0,0,102.8-13,243.1,0c0,0-3.7,76,23.4,130h-125.3l-13.1-68c0,0-19.6,28-10.3,68h-117.8
		C1192.1,788.5,1176.2,681.5,1192.1,658.5z"/>
</g>
<g id="ben">
	<g>
		<path class="st2" d="M1232.5,788.5c0,0-7.4,33.6-2.7,63.9c2.8,18.2,10,35.2,25.7,43.1c0,0,24-5,0-107H1232.5z"/>
	</g>
	<g>
		<path class="st2" d="M1376.1,788.9c0,0-6.5,33.8-1,64c3.3,18.1,10.9,34.9,26.9,42.4c0,0,23.9-5.6-2.9-107L1376.1,788.9z"/>
	</g>
	<g>
		<path class="st4" d="M1227.5,853.5c0,0,4,29,27,43c0,0,15-15,11-43l-11,21L1227.5,853.5z"/>
	</g>
	<g>
		<path class="st4" d="M1372.8,856.1c0,0,4.9,28.9,28.4,42.1c0,0,14.5-15.5,9.6-43.3l-10.3,21.3L1372.8,856.1z"/>
	</g>
</g>
<g id="øjne_og_ansigt_detalje" class="st5">
	<circle class="st6" cx="1817.5" cy="327.5" r="14"/>
	<path class="st6" d="M1855.5,373.5c0,0,14-22,23,0"/>
	<path class="st6" d="M1839.5,422.5c0,0,86-30,42,0"/>
	<path class="st6" d="M1851.5,310.5c0,0-12-13-39-20"/>
</g>
<g id="arme" class="st5">
	<g class="st7">
		<path class="st0" d="M1640.9,440c0,0,206.2,68.5,153.9,102.8c0,0,4.7,32.7-149.6-51L1640.9,440z"/>
	</g>
	<path class="st6" d="M1760.9,483.7c0,0,63.7,38.3,34.5,58.6c-29.2,20.3-65.4-9.2-65.4-9.2L1760.9,483.7z"/>
</g>
<g id="hoved">
	<path class="st2" d="M1178.5,471.5h259c0,0,23-17,13-154c0,0,47-43-6-64l8-56l-29,30l-29-30l-25,27l-34-27l-26,28l-25-28l-27,23
		l-22-32l-24,31l-18-63l-15,61l-16,34c0,0-51,33,0,63C1162.5,314.5,1151.5,413.5,1178.5,471.5z"/>
	<circle class="st8" cx="1241.5" cy="300.5" r="14"/>
	<circle class="st8" cx="1357.5" cy="300.5" r="14"/>
	<path class="st9" d="M1332.5,276.5c0,0,12-13,39-20"/>
	<path class="st9" d="M1266.5,276.5c0,0-12-13-39-20"/>
	<path class="st10" d="M1286.5,339.5c0,0,14-22,23,0"/>
	<path class="st11" d="M1213.5,397.5c0,0,86-30,42,0"/>
</g>
<g id="hår">
	<path class="st12" d="M1421.6,482.5c0,0,23.6-52,11.4-145.8c0,0,35.9-24.1-3.5-53.8l5.2-54.8l-30.6,22.3l-29.7-22.3l-10.5,23.2
		l-34.1-23.2l-20.1,26l-20.1-26l-27.1,21.4l-13.1-29.7l-23.6,28.8l-21-58.5c0,0-14,89.1-23.6,92.8s-38.5,19.5,0,53.8
		c0,0-9.6,80.8,14,145.8l-42-56.6l-16.6,31.6l-20.1-33.4l-18.4,36.2l-11.4-46.4l-25.4,50.1c0,0-26.2-189.4,99.7-325.9
		c0,0,156.5-56.6,288.6,20.4c0,0,112.8,133.7,83.1,278.5l-14.9-23.2l-10.5,41.8l-29.7-41.8v21.4l-28-33.4L1421.6,482.5z"/>
	<polygon class="st13" points="1488,301 1502,385 1502,301 	"/>
	<path class="st13" d="M1110,370.5v-82l13,14C1123,302.5,1102,302.5,1110,370.5z"/>
</g>
<g id="Layer_1">
</g>
</svg>
